<svg width="30" height="30" viewBox="0 0 30 30" fill="none" xmlns="http://www.w3.org/2000/svg">
<path d="M11.25 12.5L15.3225 15.555C15.5748 15.7442 15.8893 15.8311 16.203 15.7982C16.5166 15.7652 16.8062 15.615 17.0138 15.3775L25 6.25" stroke="#00C894" stroke-width="2.5" stroke-linecap="round"/>
<path d="M26.25 15C26.25 17.3507 25.5138 19.6423 24.1446 21.553C22.7754 23.4638 20.8421 24.8976 18.6161 25.6532C16.3902 26.4088 13.9836 26.4481 11.7341 25.7657C9.4847 25.0833 7.50553 23.7135 6.07459 21.8485C4.64365 19.9836 3.83283 17.7173 3.75601 15.3679C3.67919 13.0185 4.34023 10.704 5.64628 8.74959C6.95233 6.79515 8.83779 5.29892 11.0378 4.47103C13.2379 3.64315 15.642 3.5252 17.9125 4.13376" stroke="#00C894" stroke-width="2.5" stroke-linecap="round"/>
</svg>
