<svg width="30" height="30" viewBox="0 0 30 30" fill="none" xmlns="http://www.w3.org/2000/svg">
<g clip-path="url(#clip0_75_296)">
<path d="M25 17.5C25.3186 17.5004 25.625 17.6224 25.8567 17.8411C26.0883 18.0598 26.2278 18.3587 26.2464 18.6768C26.2651 18.9948 26.1616 19.308 25.9571 19.5523C25.7526 19.7966 25.4626 19.9536 25.1462 19.9913L25 20H8.01746L10.8837 22.8663C11.1079 23.0912 11.238 23.3931 11.2477 23.7105C11.2574 24.0279 11.1459 24.3372 10.9359 24.5754C10.7259 24.8136 10.433 24.9629 10.1169 24.993C9.80071 25.0231 9.48495 24.9318 9.23371 24.7375L9.11621 24.6338L4.32871 19.8463C3.49746 19.0163 4.02996 17.6175 5.15746 17.5075L5.30121 17.5H25ZM19.1162 5.36626C19.3314 5.15104 19.6178 5.02175 19.9216 5.00265C20.2254 4.98355 20.5257 5.07595 20.7662 5.26251L20.8837 5.36626L25.6712 10.1538C26.5025 10.9838 25.97 12.3825 24.8425 12.4925L24.6987 12.5H4.99996C4.68136 12.4997 4.37492 12.3777 4.14325 12.1589C3.91158 11.9402 3.77216 11.6413 3.75349 11.3233C3.73482 11.0052 3.8383 10.692 4.04279 10.4477C4.24728 10.2034 4.53734 10.0464 4.85371 10.0088L4.99996 10H21.9825L19.1162 7.13376C18.8819 6.89935 18.7502 6.58146 18.7502 6.25001C18.7502 5.91855 18.8819 5.60067 19.1162 5.36626Z" fill="#00C894"/>
</g>
<defs>
<clipPath id="clip0_75_296">
<rect width="30" height="30" fill="white"/>
</clipPath>
</defs>
</svg>
